<svg xmlns="http://www.w3.org/2000/svg" viewBox="0 0 420 80.36"><defs><style>.cls-1{fill:#222;}</style></defs><title>ssAsset 3@32x</title><g id="Layer_2" data-name="Layer 2"><g id="Layer_1-2" data-name="Layer 1"><path class="cls-1" d="M159.3,21.49H135.87v48H125.24v-48H101.77V10.86H159.3Z"/><path class="cls-1" d="M227.83,45.78A25.86,25.86,0,0,1,226,55.63a23.4,23.4,0,0,1-5.11,7.77,23.16,23.16,0,0,1-7.75,5.09,25.56,25.56,0,0,1-9.75,1.82H189a25.7,25.7,0,0,1-9.77-1.82,23,23,0,0,1-7.77-5.09,23.6,23.6,0,0,1-5.13-7.77,25.49,25.49,0,0,1-1.86-9.85V34.58a25.62,25.62,0,0,1,1.86-9.84A23.25,23.25,0,0,1,171.44,17a23.53,23.53,0,0,1,7.77-5.1A25.71,25.71,0,0,1,189,10h14.4a25.57,25.57,0,0,1,9.75,1.84,23.65,23.65,0,0,1,7.75,5.1A23.05,23.05,0,0,1,226,24.74a26,26,0,0,1,1.84,9.84ZM217.2,34.58a15.52,15.52,0,0,0-1-5.71,12.38,12.38,0,0,0-2.82-4.37A12.66,12.66,0,0,0,209,21.68a15.26,15.26,0,0,0-5.62-1H189a15.33,15.33,0,0,0-5.66,1,13,13,0,0,0-4.4,2.82,12.57,12.57,0,0,0-2.84,4.37,15.73,15.73,0,0,0-1,5.71v11.2a15.64,15.64,0,0,0,1,5.7,12.52,12.52,0,0,0,2.84,4.38,13,13,0,0,0,4.4,2.82,15.33,15.33,0,0,0,5.66,1h14.31a15.38,15.38,0,0,0,5.67-1,12.84,12.84,0,0,0,4.39-2.82,12.24,12.24,0,0,0,2.84-4.38,15.43,15.43,0,0,0,1-5.7Z"/><path class="cls-1" d="M290.51,21.49H267.08v48H256.45v-48H233V10.86h57.53Z"/><path class="cls-1" d="M353.8,69.5H343.17V55.1H305.8V69.5H295.17V40.18a31,31,0,0,1,2.21-11.82,27.47,27.47,0,0,1,6.13-9.28,27.87,27.87,0,0,1,9.28-6,30.8,30.8,0,0,1,11.7-2.17h24a5.4,5.4,0,0,1,2.08.41,5.28,5.28,0,0,1,2.86,2.86,5.27,5.27,0,0,1,.41,2.09Zm-48-25h37.37v-23H324.49q-.5,0-2.07.15a20.62,20.62,0,0,0-3.64.71,22.68,22.68,0,0,0-4.35,1.76,15.21,15.21,0,0,0-4.21,3.27,16.61,16.61,0,0,0-3.17,5.21,20.58,20.58,0,0,0-1.25,7.59Z"/><path class="cls-1" d="M420,69.5H371.51a5.5,5.5,0,0,1-2.13-.41,5.38,5.38,0,0,1-1.7-1.13,5.2,5.2,0,0,1-1.12-1.69,5.57,5.57,0,0,1-.41-2.13V10.86h10.63v48H420Z"/><path class="cls-1" d="M73,80.36A7.33,7.33,0,0,0,80.36,73V7.33A7.33,7.33,0,0,0,73,0H7.33A7.33,7.33,0,0,0,0,7.33V73a7.33,7.33,0,0,0,7.33,7.33ZM58.26,4.14l7,3.23L22.13,27.11l-7-3.23Zm-9.35,19-.46.7V72.94l-7.39,3.35V28l-1.16-.69-17,7.74V28.49L66.34,8.64v6.58ZM21.32,35.08l-7.39-3.24V25.26l7.39,3.35ZM32.05,72.94V32.65l7.39-3.35v47Z"/></g></g></svg>