<svg width="25" height="24" viewBox="0 0 25 24" fill="none" xmlns="http://www.w3.org/2000/svg">
<path d="M8.97799 14.5185L8.97554 14.5026L8.97225 14.4869L7.72117 8.5178V8.49V8.439L7.71256 8.38872L7.08064 4.69872L6.99523 4.2H6.48925H4.32266C4.18764 4.2 4.12199 4.1577 4.09179 4.12759C4.06176 4.09764 4.01992 4.0331 4.01992 3.9C4.01992 3.7669 4.06176 3.70236 4.09179 3.67241C4.12199 3.6423 4.18764 3.6 4.32266 3.6H7.30172C7.36318 3.6 7.432 3.62414 7.49871 3.68114C7.56233 3.73551 7.6016 3.80127 7.61794 3.85044L8.24459 7.59893L8.32836 8.1H8.83638H20.4818C20.5526 8.1 20.5997 8.11195 20.6291 8.12525C20.6533 8.13624 20.6784 8.15339 20.7052 8.19352L20.7382 8.24294L20.7803 8.28491C20.8008 8.30535 20.8123 8.32735 20.8171 8.34457C20.821 8.35901 20.8212 8.37249 20.8155 8.38974L20.8028 8.4277L20.7952 8.467L19.6239 14.5752C19.4122 15.4716 18.7496 15.99 17.8638 15.99H10.7321C9.84086 15.99 9.11132 15.3825 8.97799 14.5185ZM9.1072 8.7H8.36454L8.5206 9.42608L9.60389 14.4661L9.60603 14.4761L9.60851 14.4859C9.68804 14.8031 9.86285 15.0452 10.0953 15.1997C10.3152 15.3458 10.5501 15.39 10.7321 15.39H17.8638C17.8654 15.39 17.8671 15.39 17.8689 15.39C17.9322 15.3901 18.1619 15.3906 18.4023 15.2707C18.6847 15.13 18.913 14.8606 18.9937 14.458L18.9941 14.456L19.9872 9.41599L20.1282 8.7H19.3985H9.1072ZM18.3152 20.4C17.7421 20.4 17.2902 19.9469 17.2902 19.38C17.2902 18.8131 17.7421 18.36 18.3152 18.36C18.8883 18.36 19.3401 18.8131 19.3401 19.38C19.3401 19.9469 18.8883 20.4 18.3152 20.4ZM18.3152 18.6C18.3125 18.6 18.3095 18.6 18.3062 18.6C18.2718 18.5999 18.2052 18.5998 18.1447 18.6065C18.083 18.6133 17.8936 18.6381 17.7336 18.7976C17.5732 18.9575 17.5481 19.1473 17.5411 19.2095C17.5344 19.2701 17.5345 19.3368 17.5346 19.3711C17.5346 19.3744 17.5346 19.3773 17.5346 19.38C17.5346 19.3827 17.5346 19.3856 17.5346 19.3889C17.5345 19.4232 17.5344 19.4899 17.5411 19.5505C17.5481 19.6127 17.5732 19.8025 17.7336 19.9624C17.8936 20.1219 18.083 20.1467 18.1447 20.1535C18.2052 20.1602 18.2718 20.1601 18.3062 20.16C18.3095 20.16 18.3125 20.16 18.3152 20.16C18.3179 20.16 18.3209 20.16 18.3242 20.16C18.3585 20.1601 18.4251 20.1602 18.4856 20.1535C18.5473 20.1467 18.7368 20.1219 18.8968 19.9624C19.0572 19.8025 19.0823 19.6127 19.0892 19.5505C19.096 19.4899 19.0958 19.4232 19.0957 19.3889C19.0957 19.3856 19.0957 19.3827 19.0957 19.38C19.0957 19.3773 19.0957 19.3744 19.0957 19.3711C19.0958 19.3368 19.096 19.2701 19.0892 19.2095C19.0823 19.1473 19.0572 18.9575 18.8968 18.7976C18.7368 18.6381 18.5473 18.6133 18.4856 18.6065C18.4251 18.5998 18.3585 18.5999 18.3241 18.6C18.3208 18.6 18.3178 18.6 18.3152 18.6ZM18.5808 19.1126C18.6815 19.213 18.716 19.3233 18.7278 19.38C18.716 19.4367 18.6815 19.547 18.5808 19.6474C18.4811 19.7468 18.3718 19.7812 18.3152 19.7931C18.2585 19.7812 18.1493 19.7468 18.0495 19.6474C17.9488 19.547 17.9143 19.4367 17.9025 19.38C17.9143 19.3233 17.9488 19.213 18.0495 19.1126C18.1493 19.0132 18.2585 18.9788 18.3152 18.9669C18.3718 18.9788 18.4811 19.0132 18.5808 19.1126ZM10.2808 20.4C9.70767 20.4 9.25583 19.9469 9.25583 19.38C9.25583 18.8131 9.70767 18.36 10.2808 18.36C10.8539 18.36 11.3057 18.8131 11.3057 19.38C11.3057 19.9469 10.8539 20.4 10.2808 20.4ZM10.2808 18.6C10.2781 18.6 10.2751 18.6 10.2718 18.6C10.2374 18.5999 10.1708 18.5998 10.1103 18.6065C10.0486 18.6133 9.85919 18.6381 9.69917 18.7976C9.53878 18.9575 9.51367 19.1473 9.50673 19.2095C9.49997 19.2701 9.50013 19.3368 9.50021 19.3711C9.50021 19.3744 9.50022 19.3773 9.50022 19.38C9.50022 19.3827 9.50021 19.3856 9.50021 19.3889C9.50013 19.4232 9.49997 19.4899 9.50673 19.5505C9.51367 19.6127 9.53878 19.8025 9.69917 19.9624C9.8592 20.1219 10.0486 20.1467 10.1103 20.1535C10.1708 20.1602 10.2374 20.1601 10.2718 20.16C10.2751 20.16 10.2781 20.16 10.2808 20.16C10.2834 20.16 10.2864 20.16 10.2897 20.16C10.3241 20.1601 10.3907 20.1602 10.4512 20.1535C10.5129 20.1467 10.7023 20.1219 10.8624 19.9624C11.0228 19.8025 11.0479 19.6127 11.0548 19.5505C11.0616 19.4899 11.0614 19.4232 11.0613 19.3889C11.0613 19.3856 11.0613 19.3827 11.0613 19.38C11.0613 19.3773 11.0613 19.3744 11.0613 19.3711C11.0614 19.3368 11.0616 19.2701 11.0548 19.2095C11.0479 19.1473 11.0228 18.9575 10.8624 18.7976C10.7024 18.6381 10.5129 18.6133 10.4512 18.6065C10.3907 18.5998 10.3241 18.5999 10.2897 18.6C10.2864 18.6 10.2834 18.6 10.2808 18.6ZM10.5464 19.1126C10.6471 19.213 10.6816 19.3233 10.6934 19.38C10.6816 19.4367 10.6471 19.547 10.5464 19.6474C10.4467 19.7468 10.3374 19.7812 10.2808 19.7931C10.2241 19.7812 10.1149 19.7468 10.0151 19.6474C9.91442 19.547 9.87992 19.4367 9.86814 19.38C9.87992 19.3233 9.91443 19.213 10.0151 19.1126C10.1149 19.0132 10.2241 18.9788 10.2808 18.9669C10.3374 18.9788 10.4467 19.0132 10.5464 19.1126ZM18.3152 19.2C18.1346 19.2 18.1346 19.2 18.1346 19.38C18.1346 19.4699 18.1346 19.5149 18.1571 19.5374C18.1797 19.56 18.2248 19.56 18.3152 19.56C18.4957 19.56 18.4957 19.56 18.4957 19.38C18.4957 19.2 18.4957 19.2 18.3152 19.2ZM10.2808 19.2C10.1002 19.2 10.1002 19.2 10.1002 19.38C10.1002 19.56 10.1002 19.56 10.2808 19.56C10.3711 19.56 10.4163 19.56 10.4388 19.5374C10.4613 19.5149 10.4613 19.4699 10.4613 19.38C10.4613 19.2 10.4613 19.2 10.2808 19.2Z" fill="#3F3F46" stroke="#3F3F46" stroke-width="1.2"/>
</svg>
